<?xml version="1.0" encoding="utf-8"?>
<!-- Generator: Adobe Illustrator 16.0.0, SVG Export Plug-In . SVG Version: 6.00 Build 0)  -->
<!DOCTYPE svg PUBLIC "-//W3C//DTD SVG 1.1//EN" "http://www.w3.org/Graphics/SVG/1.1/DTD/svg11.dtd">
<svg version="1.1" id="Layer_2" xmlns="http://www.w3.org/2000/svg" xmlns:xlink="http://www.w3.org/1999/xlink" x="0px" y="0px"
	 width="512px" height="512px" viewBox="0 0 512 512" enable-background="new 0 0 512 512" xml:space="preserve">
<g>
	<path fill="#243D5C" d="M384.351,218.231l-71.729-54.312V86.114c0-4.287-3.505-7.793-7.794-7.793H252.21
		c-4.286,0-7.792,3.507-7.792,7.793v26.164l-42.5-32.178c-3.421-2.592-9.018-2.592-12.439,0L7.049,218.231
		c-3.422,2.591-2.713,4.709,1.573,4.709h40.923v203.088c0,4.3,3.508,7.816,7.796,7.816h21.435V298.657
		c0-4.299,3.509-7.815,7.795-7.815h81.847c4.287,0,7.794,3.518,7.794,7.815v135.188h157.846c4.289,0,7.797-3.518,7.797-7.816
		V222.942h40.924C387.068,222.942,387.775,220.822,384.351,218.231z M312.622,357.628c0,4.302-3.505,7.816-7.794,7.816h-81.846
		c-4.287,0-7.796-3.517-7.796-7.816V298.66c0-4.301,3.509-7.817,7.796-7.817h81.846c4.289,0,7.794,3.518,7.794,7.817V357.628z"/>
	<path fill="#243D5C" d="M325.598,319.271h-6.97v36.361c0,2.406,1.962,4.372,4.361,4.372h11.887V328.91
		C334.875,323.609,330.703,319.271,325.598,319.271z M505.907,239.399l-102.048-77.266c-1.912-1.449-5.043-1.449-6.958,0
		l-31.971,24.206l55.324,43.394c4.073,3.195,3.232,5.809-1.874,5.809h-63.306v124.465h122.701c2.396,0,4.357-1.968,4.357-4.374
		v-113.6h22.892C507.426,242.032,507.819,240.848,505.907,239.399z"/>
</g>
</svg>
